HIERARCHY
ROOT hip
{
  OFFSET 0 0 0
  CHANNELS 6 Xposition Yposition Zposition Zrotation Yrotation Xrotation
  JOINT abdomen
  {
    OFFSET 0 20.6881 -0.73152
    CHANNELS 3 Zrotation Xrotation Yrotation
    JOINT chest
    {
      OFFSET 0 11.7043 -0.48768
      CHANNELS 3 Zrotation Xrotation Yrotation
      JOINT neck
      {
        OFFSET 0 22.1894 -2.19456
        CHANNELS 3 Zrotation Xrotation Yrotation
        JOINT head
        {
          OFFSET -0.24384 7.07133 1.2192
          CHANNELS 3 Zrotation Xrotation Yrotation
          JOINT leftEye
          {
            OFFSET 4.14528 8.04674 8.04672
            CHANNELS 3 Zrotation Xrotation Yrotation
            End Site
            {
              OFFSET 1 0 0
            }
          }
          JOINT rightEye
          {
            OFFSET -3.6576 8.04674 8.04672
            CHANNELS 3 Zrotation Xrotation Yrotation
            End Site
            {
              OFFSET 1 0 0
            }
          }
        }
      }
      JOINT rCollar
      {
        OFFSET -2.68224 19.2634 -4.8768
        CHANNELS 3 Zrotation Xrotation Yrotation
        JOINT rShldr
        {
          OFFSET -8.77824 -1.95073 1.46304
          CHANNELS 3 Zrotation Xrotation Yrotation
          JOINT rForeArm
          {
            OFFSET -28.1742 -1.7115 0.48768
            CHANNELS 3 Zrotation Xrotation Yrotation
            JOINT rHand
            {
              OFFSET -22.5879 0.773209 7.07136
              CHANNELS 3 Zrotation Xrotation Yrotation
              JOINT rThumb1
              {
                OFFSET -1.2192 -0.487915 3.41376
                CHANNELS 3 Zrotation Xrotation Yrotation
                JOINT rThumb2
                {
                  OFFSET -3.37035 -0.52449 3.41376
                  CHANNELS 3 Zrotation Xrotation Yrotation
                  End Site
                  {
                    OFFSET -1.78271 -1.18214 1.43049
                  }
                }
              }
              JOINT rIndex1
              {
                OFFSET -7.75947 0.938293 5.60832
                CHANNELS 3 Zrotation Xrotation Yrotation
                JOINT rIndex2
                {
                  OFFSET -2.54057 -0.884171 1.56538
                  CHANNELS 3 Zrotation Xrotation Yrotation
                  End Site
                  {
                    OFFSET -1.62519 -0.234802 1.16502
                  }
                }
              }
              JOINT rMid1
              {
                OFFSET -8.24714 1.18213 3.41376
                CHANNELS 3 Zrotation Xrotation Yrotation
                JOINT rMid2
                {
                  OFFSET -3.10165 -0.590103 1.0647
                  CHANNELS 3 Zrotation Xrotation Yrotation
                  End Site
                  {
                    OFFSET -2.48547 -0.328903 0.83742
                  }
                }
              }
              JOINT rRing1
              {
                OFFSET -8.82822 0.546677 1.51678
                CHANNELS 3 Zrotation Xrotation Yrotation
                JOINT rRing2
                {
                  OFFSET -2.60934 -0.819778 -0.0198488
                  CHANNELS 3 Zrotation Xrotation Yrotation
                  End Site
                  {
                    OFFSET -2.33842 -0.294052 0.168128
                  }
                }
              }
              JOINT rPinky1
              {
                OFFSET -8.27202 -0.0477905 -0.4584
                CHANNELS 3 Zrotation Xrotation Yrotation
                JOINT rPinky2
                {
                  OFFSET -1.82734 -0.647385 -0.700984
                  CHANNELS 3 Zrotation Xrotation Yrotation
                  End Site
                  {
                    OFFSET -1.69225 -0.51767 -0.607171
                  }
                }
              }
            }
          }
        }
      }
      JOINT lCollar
      {
        OFFSET 2.68224 19.2634 -4.8768
        CHANNELS 3 Zrotation Xrotation Yrotation
        JOINT lShldr
        {
          OFFSET 8.77824 -1.95073 1.46304
          CHANNELS 3 Zrotation Xrotation Yrotation
          JOINT lForeArm
          {
            OFFSET 28.1742 -1.7115 0.48768
            CHANNELS 3 Zrotation Xrotation Yrotation
            JOINT lHand
            {
              OFFSET 22.5879 0.773209 7.07136
              CHANNELS 3 Zrotation Xrotation Yrotation
              JOINT lThumb1
              {
                OFFSET 1.2192 -0.487915 3.41376
                CHANNELS 3 Zrotation Xrotation Yrotation
                JOINT lThumb2
                {
                  OFFSET 3.37035 -0.52449 3.41376
                  CHANNELS 3 Zrotation Xrotation Yrotation
                  End Site
                  {
                    OFFSET 1.78271 -1.18214 1.43049
                  }
                }
              }
              JOINT lIndex1
              {
                OFFSET 7.75947 0.938293 5.60832
                CHANNELS 3 Zrotation Xrotation Yrotation
                JOINT lIndex2
                {
                  OFFSET 2.54057 -0.884171 1.56538
                  CHANNELS 3 Zrotation Xrotation Yrotation
                  End Site
                  {
                    OFFSET 1.62519 -0.234802 1.16502
                  }
                }
              }
              JOINT lMid1
              {
                OFFSET 8.24714 1.18213 3.41376
                CHANNELS 3 Zrotation Xrotation Yrotation
                JOINT lMid2
                {
                  OFFSET 3.10165 -0.590103 1.0647
                  CHANNELS 3 Zrotation Xrotation Yrotation
                  End Site
                  {
                    OFFSET 2.48547 -0.328903 0.83742
                  }
                }
              }
              JOINT lRing1
              {
                OFFSET 8.82822 0.546677 1.51678
                CHANNELS 3 Zrotation Xrotation Yrotation
                JOINT lRing2
                {
                  OFFSET 2.60934 -0.819778 -0.0198488
                  CHANNELS 3 Zrotation Xrotation Yrotation
                  End Site
                  {
                    OFFSET 2.33842 -0.294052 0.168128
                  }
                }
              }
              JOINT lPinky1
              {
                OFFSET 8.27202 -0.0477905 -0.4584
                CHANNELS 3 Zrotation Xrotation Yrotation
                JOINT lPinky2
                {
                  OFFSET 1.82734 -0.647385 -0.700984
                  CHANNELS 3 Zrotation Xrotation Yrotation
                  End Site
                  {
                    OFFSET 1.69225 -0.51767 -0.607171
                  }
                }
              }
            }
          }
        }
      }
    }
  }
  JOINT rButtock
  {
    OFFSET -8.77824 4.35084 1.2192
    CHANNELS 3 Zrotation Xrotation Yrotation
    JOINT rThigh
    {
      OFFSET 0 -1.70687 -2.19456
      CHANNELS 3 Zrotation Xrotation Yrotation
      JOINT rShin
      {
        OFFSET 0 -36.8199 0.73152
        CHANNELS 3 Zrotation Xrotation Yrotation
        JOINT rFoot
        {
          OFFSET 0.73152 -45.1104 -5.12064
          CHANNELS 3 Zrotation Xrotation Yrotation
          End Site
          {
            OFFSET -1.1221 -3.69964 12.103
          }
        }
      }
    }
  }
  JOINT lButtock
  {
    OFFSET 8.77824 4.35084 1.2192
    CHANNELS 3 Zrotation Xrotation Yrotation
    JOINT lThigh
    {
      OFFSET 0 -1.70687 -2.19456
      CHANNELS 3 Zrotation Xrotation Yrotation
      JOINT lShin
      {
        OFFSET 0 -36.8199 0.73152
        CHANNELS 3 Zrotation Xrotation Yrotation
        JOINT lFoot
        {
          OFFSET -0.73152 -45.1104 -5.12064
          CHANNELS 3 Zrotation Xrotation Yrotation
          End Site
          {
            OFFSET 1.1221 -3.69964 12.103
          }
        }
      }
    }
  }
}
MOTION
Frames:	5
Frame Time:	0.03333
-17.2881 86.2927 -49.0441 67.43479919433594 -44.527591705322266 -59.88311004638672 -30.749698638916016 31.466407775878906 20.302289962768555 -5.2622294425964355 -12.722103118896484 2.1096930503845215 -2.107836961746216 11.583000183105469 7.026457786560059 -12.472796440124512 -20.88370704650879 11.666510581970215 -0.0 0.0 -0.0 -0.0 0.0 -0.0 -0.0 -0.0 -0.0 15.14069938659668 26.443201065063477 36.95470428466797 -27.59649658203125 -28.594602584838867 65.0252914428711 -0.04026799649000168 5.7177863121032715 0.8063374757766724 -0.0 -0.0 -0.0 -0.0 -0.0 -0.0 -0.0 -0.0 -0.0 7.730902194976807 5.47491455078125 0.4173222780227661 -0.0 -0.0 -0.0 2.905566453933716 0.9650754332542419 0.10300818830728531 -0.0 -0.0 -0.0 10.278596878051758 0.7318810820579529 0.026273518800735474 -0.0 -0.0 -0.0 2.221662998199463 -0.7334509491920471 -0.20832103490829468 -0.0 -0.0 -0.0 -52.29790115356445 -6.743649482727051 5.574994087219238 24.36859893798828 -19.799314498901367 -50.821998596191406 0.5732415318489075 -21.008886337280273 3.0908727645874023 0.0 0.0 -0.0 -0.0 0.0 -0.0 0.0 0.0 -0.0 -7.730902194976807 5.47491455078125 -0.4173222780227661 0.0 0.0 -0.0 -2.905566453933716 0.9650754332542419 -0.10300818830728531 0.0 0.0 -0.0 -10.278596878051758 0.7318810820579529 -0.026273518800735474 0.0 0.0 -0.0 -2.221662998199463 -0.7334509491920471 0.20832103490829468 -0.0 0.0 -0.0 -43.726200103759766 -12.425398826599121 -14.07960319519043 0.046514976769685745 21.081398010253906 2.6398849487304688 2.7469730377197266 0.40547600388526917 -17.687294006347656 0.0 0.0 0.0 81.97550201416016 -34.23707962036133 32.341217041015625 -0.32747411727905273 26.881792068481445 -0.8253110647201538 0.9459924697875977 0.5724641680717468 34.229705810546875
-17.5287 87.0813 -47.9106 68.36219787597656 -44.132843017578125 -58.35557556152344 -31.01229476928711 29.826797485351562 18.53959083557129 -5.78505277633667 -12.827202796936035 1.6295061111450195 -1.7150565385818481 11.191694259643555 7.029677391052246 -13.67160415649414 -19.477693557739258 11.567096710205078 -0.0 0.0 -0.0 -0.0 0.0 -0.0 -0.0 0.0 -0.0 14.627897262573242 26.619693756103516 38.81040954589844 -27.721506118774414 -29.150798797607422 65.89530944824219 -0.023851150646805763 4.404735565185547 0.6201887726783752 -0.0 0.0 0.0 -0.0 0.0 0.0 -0.0 0.0 0.0 7.730902194976807 5.47491455078125 0.4173222780227661 -0.0 0.0 0.0 2.905566453933716 0.9650754332542419 0.10300818830728531 -0.0 0.0 0.0 10.278596878051758 0.7318810820579529 0.026273518800735474 -0.0 0.0 0.0 2.221662998199463 -0.7334509491920471 -0.20832103490829468 -0.0 0.0 -0.0 -52.5916862487793 -8.215265274047852 6.545765399932861 24.378707885742188 -19.821889877319336 -50.83049774169922 0.40292122960090637 -17.754602432250977 2.5792620182037354 0.0 0.0 0.0 0.0 0.0 0.0 0.0 0.0 0.0 -7.730902194976807 5.47491455078125 -0.4173222780227661 0.0 0.0 0.0 -2.905566453933716 0.9650754332542419 -0.10300818830728531 0.0 0.0 0.0 -10.278596878051758 0.7318810820579529 -0.026273518800735474 0.0 0.0 0.0 -2.221662998199463 -0.7334509491920471 0.20832103490829468 -0.0 0.0 -0.0 -44.146602630615234 -10.887494087219238 -16.372289657592773 0.01833592914044857 14.814809799194336 2.5455410480499268 2.6230862140655518 1.9006010293960571 -21.933393478393555 0.0 0.0 0.0 79.23650360107422 -28.123788833618164 20.943307876586914 0.1822594702243805 5.118447780609131 0.19476501643657684 -3.0981533527374268 6.339778900146484 43.1377067565918
-17.9164 87.7398 -46.0755 69.42819213867188 -43.36613464355469 -58.645172119140625 -31.51529312133789 29.842510223388672 17.635475158691406 -5.712389945983887 -13.110092163085938 1.2595338821411133 -1.422863245010376 10.307403564453125 7.009561061859131 -15.0007963180542 -17.65819549560547 11.508708953857422 -0.0 0.0 -0.0 -0.0 0.0 -0.0 -0.0 0.0 -0.0 13.684402465820312 26.77410316467285 40.16720199584961 -27.91200828552246 -30.0889949798584 67.347900390625 -0.014007770456373692 3.3769583702087402 0.47519049048423767 -0.0 0.0 0.0 -0.0 0.0 0.0 -0.0 0.0 0.0 7.730902194976807 5.47491455078125 0.4173222780227661 -0.0 0.0 0.0 2.905566453933716 0.9650754332542419 0.10300818830728531 -0.0 0.0 0.0 10.278596878051758 0.7318810820579529 0.026273518800735474 -0.0 0.0 0.0 2.221662998199463 -0.7334509491920471 -0.20832103490829468 -0.0 0.0 -0.0 -53.56310272216797 -9.640019416809082 6.89839506149292 24.56220245361328 -20.186986923217773 -51.437896728515625 0.47979530692100525 -19.3016357421875 2.8209457397460938 -0.0 -0.0 -0.0 -0.0 -0.0 -0.0 -0.0 -0.0 -0.0 -7.730902194976807 5.47491455078125 -0.4173222780227661 -0.0 -0.0 -0.0 -2.905566453933716 0.9650754332542419 -0.10300818830728531 -0.0 -0.0 -0.0 -10.278596878051758 0.7318810820579529 -0.026273518800735474 -0.0 -0.0 -0.0 -2.221662998199463 -0.7334509491920471 0.20832103490829468 -0.0 0.0 -0.0 -44.89469909667969 -8.273747444152832 -15.586702346801758 0.062154222279787064 8.95658016204834 2.3964242935180664 2.7760989665985107 3.015353202819824 -25.723196029663086 0.0 0.0 0.0 80.51728820800781 -28.402189254760742 24.439367294311523 0.4716923236846924 2.5019028186798096 0.1747923493385315 -4.159030914306641 7.6060566902160645 42.90049743652344
-18.0755 88.0007 -44.6901 71.46881103515625 -42.54438781738281 -60.49370574951172 -31.410503387451172 30.14920425415039 17.03329849243164 -5.459400177001953 -13.238900184631348 1.0488286018371582 -1.1080397367477417 9.48393440246582 7.032901287078857 -16.311803817749023 -15.83178997039795 11.56319808959961 -0.0 0.0 -0.0 -0.0 0.0 -0.0 -0.0 0.0 -0.0 12.47309684753418 27.04370880126953 41.22380447387695 -28.07329750061035 -31.06879234313965 68.95760345458984 -0.009403408505022526 2.767695426940918 0.38925430178642273 -0.0 0.0 -0.0 -0.0 0.0 -0.0 -0.0 0.0 -0.0 7.730902194976807 5.47491455078125 0.4173222780227661 -0.0 0.0 -0.0 2.905566453933716 0.9650754332542419 0.10300818830728531 -0.0 0.0 -0.0 10.278596878051758 0.7318810820579529 0.026273518800735474 -0.0 0.0 -0.0 2.221662998199463 -0.7334509491920471 -0.20832103490829468 -0.0 0.0 -0.0 -55.01219940185547 -10.801202774047852 6.899508953094482 24.840099334716797 -20.75679588317871 -52.3882942199707 0.6172287464141846 -21.986404418945312 3.2499237060546875 -0.0 -0.0 -0.0 -0.0 -0.0 -0.0 -0.0 -0.0 -0.0 -7.730902194976807 5.47491455078125 -0.4173222780227661 -0.0 -0.0 -0.0 -2.905566453933716 0.9650754332542419 -0.10300818830728531 -0.0 -0.0 -0.0 -10.278596878051758 0.7318810820579529 -0.026273518800735474 -0.0 -0.0 -0.0 -2.221662998199463 -0.7334509491920471 0.20832103490829468 -0.0 0.0 -0.0 -45.99850845336914 -6.359442234039307 -13.78251838684082 0.08770446479320526 4.807681560516357 2.2979776859283447 2.704221725463867 3.2575089931488037 -29.073488235473633 0.0 0.0 0.0 84.2999038696289 -32.33039855957031 34.552398681640625 0.3005977272987366 11.13780689239502 -0.25462186336517334 -3.4275062084198 7.104897499084473 38.129608154296875
-17.9776 87.8119 -42.5085 73.99130249023438 -42.3840217590332 -62.50209045410156 -30.302797317504883 29.52790069580078 16.765296936035156 -5.197641849517822 -12.816502571105957 1.1748484373092651 -0.6533491611480713 9.328143119812012 7.190478324890137 -17.588314056396484 -14.41269588470459 11.831390380859375 -0.0 0.0 -0.0 -0.0 0.0 -0.0 -0.0 -0.0 -0.0 10.724194526672363 27.446496963500977 42.1808967590332 -28.196598052978516 -31.936399459838867 70.33899688720703 -0.012573109939694405 3.2000582218170166 0.4501136541366577 -0.0 -0.0 -0.0 -0.0 -0.0 -0.0 -0.0 -0.0 -0.0 7.730902194976807 5.47491455078125 0.4173222780227661 -0.0 -0.0 -0.0 2.905566453933716 0.9650754332542419 0.10300818830728531 -0.0 -0.0 -0.0 10.278596878051758 0.7318810820579529 0.026273518800735474 -0.0 -0.0 -0.0 2.221662998199463 -0.7334509491920471 -0.20832103490829468 -0.0 -0.0 -0.0 -56.969993591308594 -11.487811088562012 6.6453962326049805 25.165691375732422 -21.45780372619629 -53.52009963989258 0.7044884562492371 -23.129436492919922 3.44176983833313 -0.0 -0.0 -0.0 -0.0 -0.0 -0.0 -0.0 -0.0 -0.0 -7.730902194976807 5.47491455078125 -0.4173222780227661 -0.0 -0.0 -0.0 -2.905566453933716 0.9650754332542419 -0.10300818830728531 -0.0 -0.0 -0.0 -10.278596878051758 0.7318810820579529 -0.026273518800735474 -0.0 -0.0 -0.0 -2.221662998199463 -0.7334509491920471 0.20832103490829468 -0.0 0.0 -0.0 -47.570098876953125 -7.161991596221924 -12.385490417480469 0.05024382844567299 4.105895519256592 2.3644754886627197 1.573426365852356 1.7356979846954346 -32.05129623413086 0.0 0.0 0.0 93.03700256347656 -37.49420928955078 49.50640106201172 -0.03555592522025108 29.776893615722656 -1.2142143249511719 -2.18638277053833 4.6705732345581055 30.53220558166504
